Coordinates
version=1
nRows=10
nColumns=40
inDegrees=yes

Units are S.I. units (second, meters, Newtons, ...)
If the header above contains a line with 'inDegrees', this indicates whether rotational values are in degrees (yes) or radians (no).

endheader
time	pelvis_tilt	pelvis_list	pelvis_rotation	pelvis_tx	pelvis_ty	pelvis_tz	hip_flexion_r	hip_adduction_r	hip_rotation_r	knee_angle_r	knee_angle_r_beta	ankle_angle_r	subtalar_angle_r	mtp_angle_r	hip_flexion_l	hip_adduction_l	hip_rotation_l	knee_angle_l	knee_angle_l_beta	ankle_angle_l	subtalar_angle_l	mtp_angle_l	lumbar_extension	lumbar_bending	lumbar_rotation	arm_flex_r	arm_add_r	arm_rot_r	elbow_flex_r	pro_sup_r	wrist_flex_r	wrist_dev_r	arm_flex_l	arm_add_l	arm_rot_l	elbow_flex_l	pro_sup_l	wrist_flex_l	wrist_dev_l
      3.62500000	      1.94655650	     -6.98349702	     -1.97065851	     -0.37020562	      0.80811546	     -1.04884308	     57.42321829	      2.20683548	    -13.73196230	     26.15762739	      0.45653672	    -12.14422464	      0.00000000	      0.00000000	     48.80698626	     -4.11174553	     -1.40703723	     89.02397787	      1.55376153	     27.11871715	      0.00000000	      0.00000000	    -21.91732480	      5.15747736	      4.27075793	     89.83689209	    -21.42968990	     29.74473396	     44.11471523	     82.38637460	      0.00000000	      0.00000000	     89.90649125	    -24.77306143	     30.77392201	     40.96936847	     85.58329374	      0.00000000	      0.00000000
      3.63000000	      1.91339298	     -6.96127412	     -1.97904241	     -0.37041710	      0.80759920	     -1.04890781	     57.49067496	      2.19991368	    -13.71015048	     26.17291956	      0.45680362	    -12.13762599	      0.00000000	      0.00000000	     48.90114036	     -4.08416100	     -1.42499721	     89.09665369	      1.55502996	     27.13727063	      0.00000000	      0.00000000	    -21.93052381	      5.14863949	      4.27593565	     89.83767937	    -21.44395441	     29.63610923	     44.20229277	     82.67275539	      0.00000000	      0.00000000	     89.90705667	    -24.78685713	     30.65114566	     41.00429506	     85.51427737	      0.00000000	      0.00000000
      3.63500000	      1.88946268	     -6.96258716	     -1.97589982	     -0.37050662	      0.80706448	     -1.04900585	     57.55668993	      2.19588335	    -13.72010206	     26.21305493	      0.45750412	    -12.08979905	      0.00000000	      0.00000000	     48.98380501	     -4.05127551	     -1.40100268	     89.19240221	      1.55670109	     27.17632461	      0.00000000	      0.00000000	    -21.92719637	      5.16849800	      4.25242418	     89.83899630	    -21.36232358	     29.53098218	     44.18325840	     82.55496711	      0.00000000	      0.00000000	     89.90756744	    -24.82506358	     30.54830109	     41.01537460	     85.50261812	      0.00000000	      0.00000000
      3.64000000	      1.93377116	     -6.90872807	     -2.00065878	     -0.37058245	      0.80674989	     -1.04905165	     57.54729745	      2.18678272	    -13.66467859	     26.27857064	      0.45864758	    -11.96098133	      0.00000000	      0.00000000	     48.96143811	     -3.99236371	     -1.41204248	     89.24443415	      1.55760921	     27.23518796	      0.00000000	      0.00000000	    -21.99621559	      5.11732847	      4.27038159	     89.84088168	    -21.41052369	     29.72033719	     44.31034465	     81.84117967	      0.00000000	      0.00000000	     89.90827213	    -24.87369236	     30.71554323	     41.07523019	     84.45627897	      0.00000000	      0.00000000
      3.64500000	      1.93575094	     -6.91132706	     -1.99553528	     -0.37087230	      0.80633689	     -1.04909124	     57.56731750	      2.19187758	    -13.68317681	     26.25985271	      0.45832089	    -12.00559314	      0.00000000	      0.00000000	     49.01734823	     -3.98714761	     -1.41512935	     89.30145074	      1.55860434	     27.22235656	      0.00000000	      0.00000000	    -22.05314477	      5.13080395	      4.27516516	     89.84062957	    -21.35204524	     29.33364049	     44.29751397	     82.89882366	      0.00000000	      0.00000000	     89.90806003	    -24.83653619	     30.25869727	     41.05601675	     85.46525408	      0.00000000	      0.00000000
      3.65000000	      1.94084916	     -6.94717920	     -1.97994340	     -0.37112183	      0.80590208	     -1.04910529	     57.58327829	      2.21591369	    -13.71452709	     26.25657848	      0.45826374	    -12.01894299	      0.00000000	      0.00000000	     49.08397437	     -3.99015596	     -1.35575424	     89.39131210	      1.56017272	     27.26313913	      0.00000000	      0.00000000	    -22.09976125	      5.17606990	      4.28654493	     89.84199509	    -21.29724679	     29.22545878	     44.29495730	     82.58659566	      0.00000000	      0.00000000	     89.90851368	    -24.82200717	     30.08743203	     41.06816221	     85.55436850	      0.00000000	      0.00000000
      3.65500000	      1.86815362	     -6.95397117	     -1.96848122	     -0.37131014	      0.80525506	     -1.04921302	     57.70843754	      2.21337470	    -13.68380091	     26.30903489	      0.45917928	    -11.94797921	      0.00000000	      0.00000000	     49.23892734	     -3.94983363	     -1.30932454	     89.48707246	      1.56184405	     27.30302881	      0.00000000	      0.00000000	    -22.05649430	      5.20591936	      4.26483909	     89.84217945	    -21.31666105	     29.23142064	     44.37925979	     82.19455302	      0.00000000	      0.00000000	     89.90894356	    -24.86786637	     30.01452309	     41.13201462	     85.67376312	      0.00000000	      0.00000000
      3.66000000	      1.86300123	     -6.97996269	     -1.94245133	     -0.37152480	      0.80482380	     -1.04930272	     57.73657229	      2.21011803	    -13.73919271	     26.30419912	      0.45909488	    -11.96933267	      0.00000000	      0.00000000	     49.31354255	     -3.92237609	     -1.24661381	     89.56348409	      1.56317769	     27.30688351	      0.00000000	      0.00000000	    -22.09348258	      5.25198891	      4.25715457	     89.84299883	    -21.28832585	     28.97680729	     44.40771001	     83.39333071	      0.00000000	      0.00000000	     89.90925200	    -24.89009624	     29.97319600	     41.16303772	     85.25758150	      0.00000000	      0.00000000
      3.66500000	      1.84504482	     -6.99718133	     -1.93766202	     -0.37172212	      0.80439179	     -1.04938264	     57.77272010	      2.22697556	    -13.71973857	     26.29145105	      0.45887239	    -11.99414492	      0.00000000	      0.00000000	     49.38871018	     -3.90769650	     -1.21242856	     89.63549619	      1.56443454	     27.32447244	      0.00000000	      0.00000000	    -22.11636567	      5.27487610	      4.29435456	     89.84367938	    -21.34659696	     29.02922530	     44.49447174	     82.78642249	      0.00000000	      0.00000000	     89.90950769	    -24.82205808	     29.76595110	     41.16195851	     85.51494019	      0.00000000	      0.00000000
      3.67000000	      1.81212031	     -6.97920824	     -1.94354606	     -0.37180797	      0.80386106	     -1.04947643	     57.86131534	      2.21692263	    -13.70395453	     26.36350922	      0.46013004	    -11.98165765	      0.00000000	      0.00000000	     49.47862877	     -3.87918691	     -1.21560043	     89.71684813	      1.56585439	     27.34869147	      0.00000000	      0.00000000	    -22.10557523	      5.27656075	      4.27263787	     89.84408036	    -21.30005315	     28.95311992	     44.52252309	     82.70746702	      0.00000000	      0.00000000	     89.90932675	    -24.89215585	     29.71762189	     41.22752739	     85.50488960	      0.00000000	      0.00000000
